<?xml version="1.0" encoding="UTF-8"?>
<svg width="48px" height="49px" viewBox="0 0 48 49" version="1.1" xmlns="http://www.w3.org/2000/svg" xmlns:xlink="http://www.w3.org/1999/xlink">
    <title>Group 2</title>
    <g id="UI-Homepage" stroke="none" stroke-width="1" fill="none" fill-rule="evenodd">
        <g id="UI---Home-V2" transform="translate(-47.000000, -2457.000000)">
            <g id="Featured-Press" transform="translate(-27.000000, 2256.702020)">
                <g id="Group-13">
                    <g id="Group-26">
                        <g id="Group-2" transform="translate(75.328125, 202.664062)">
                            <circle id="Oval-Copy" stroke="#000000" cx="22.3359375" cy="22.3359375" r="22.3359375"></circle>
                            <path d="M18.7343725,26.4542193 L22.7656129,22.4229789 C22.8906126,22.2979792 22.9531124,22.152146 22.9531124,21.9854799 C22.9531124,21.8188138 22.8906126,21.6729807 22.7656129,21.547981 L18.7343725,17.5167406 C18.5468729,17.329241 18.322915,17.2875746 18.0624991,17.3917409 C17.8020832,17.4959071 17.671875,17.6834067 17.671875,17.9542395 L17.671875,26.0167203 C17.671875,26.2875532 17.8020832,26.4750527 18.0624991,26.579219 C18.322915,26.6833852 18.5468729,26.6417188 18.7343725,26.4542193 Z" id="c-copy-2" fill="#000000" fill-rule="nonzero" transform="translate(20.312494, 21.985480) scale(-1, 1) translate(-20.312494, -21.985480) "></path>
                        </g>
                    </g>
                </g>
            </g>
        </g>
    </g>
</svg>