<svg xmlns="http://www.w3.org/2000/svg" width="118" height="110" viewBox="0 0 59 55"><g><g><g><path fill="none" stroke="#fff" stroke-linecap="round" stroke-linejoin="round" stroke-miterlimit="20" stroke-width="1.65" d="M39.507 25.017v0-11.206c0-.86-.7-1.56-1.561-1.56h-13.53c-1.292 0-2.784-.181-4.451 0-3.783 8.423-9.465 22.004-9.465 22.004v0l.159 8.485v0l7.963-7.963v0-.047 0h10.122v0"/></g><g><path fill="none" stroke="#fff" stroke-linecap="round" stroke-linejoin="round" stroke-miterlimit="20" stroke-width="1.65" d="M30.243 25.15h26.321c.686 0 1.243.556 1.243 1.242v15.413c0 .687-.557 1.242-1.243 1.242h-4.595v6.377l-6.34-6.339v0-.038 0H30.243A1.241 1.241 0 0 1 29 41.805V26.392c0-.686.556-1.242 1.243-1.242z"/></g></g><g><path fill="none" stroke="#fff" stroke-linecap="round" stroke-miterlimit="20" stroke-width="1.65" d="M25.25.95l-24.5 53"/></g></g></svg>