<svg xmlns="http://www.w3.org/2000/svg" width="88" height="110" viewBox="0 0 44 55"><g><g><g><path fill="none" stroke="#fff" stroke-linecap="round" stroke-linejoin="round" stroke-miterlimit="20" stroke-width="1.49" d="M19.13 15.88c1.025-.052 2.21-.122 3.603-.122 8.188 0 9.411 1.578 9.411 1.578v0l.645 3.56c.134.914.917 1.59 1.84 1.59h6.388a1.954 1.954 0 0 0 1.936-2.221l-.265-1.914c-.743-6.413-10.92-8.557-19.955-8.557-.303 0-.623-.036-.916.008-.477 1.751-.85 2.287-2.687 6.079z"/></g><g><path fill="none" stroke="#fff" stroke-linecap="round" stroke-linejoin="round" stroke-miterlimit="20" stroke-width="1.49" d="M36.304 26.936L32 26.484a3.163 3.163 0 0 1-2.797-2.68l-.425-2.85a1.961 1.961 0 0 0-1.942-1.674h-8.204c-.972 0-2.69 3.002-4.568 7.204 0 0-6.146 13.683-8.173 18.166.594.35 1.327.512 2.085.512H37.49c2.79 0 4.9-2.52 4.411-5.266l-1.657-9.29a4.479 4.479 0 0 0-3.94-3.67z"/></g><g><path fill="none" stroke="#fff" stroke-linecap="round" stroke-linejoin="round" stroke-miterlimit="20" stroke-width="1.49" d="M28.625 33.282a5.893 5.893 0 1 1-11.785-.001 5.893 5.893 0 0 1 11.785.001z"/></g></g><g><path fill="none" stroke="#fff" stroke-linecap="round" stroke-miterlimit="20" stroke-width="1.65" d="M26 1.05l-24.5 53"/></g></g></svg>