<?xml version="1.0" encoding="UTF-8"?>
<svg width="95px" height="17px" viewBox="0 0 95 17" version="1.1" xmlns="http://www.w3.org/2000/svg" xmlns:xlink="http://www.w3.org/1999/xlink">
    <title>Group 9</title>
    <g id="UI-Homepage" stroke="none" stroke-width="1" fill="none" fill-rule="evenodd">
        <g id="UI---Home-V2" transform="translate(-670.000000, -2430.000000)" fill="#CB9300">
            <g id="Featured-Press" transform="translate(-27.000000, 2256.702020)">
                <g id="Group-13">
                    <g id="Group-26">
                        <g id="Group-16" transform="translate(159.000000, 174.000000)">
                            <g id="Group-15">
                                <g id="Group-9" transform="translate(538.599997, 0.000000)">
                                    <polygon id="Star" points="7.91999979 11.8799997 3.26474072 14.3274142 4.15381609 9.14370706 0.387632381 5.47258526 5.59237025 4.71629258 7.91999979 0 10.2476293 4.71629258 15.4523672 5.47258526 11.6861835 9.14370706 12.5752589 14.3274142"></polygon>
                                    <polygon id="Star-Copy-2" points="46.7999988 11.8799997 42.1447397 14.3274142 43.0338151 9.14370706 39.2676314 5.47258526 44.4723692 4.71629258 46.7999988 0 49.1276283 4.71629258 54.3323662 5.47258526 50.5661825 9.14370706 51.4552578 14.3274142"></polygon>
                                    <polygon id="Star-Copy" points="27.3599993 11.8799997 22.7047402 14.3274142 23.5938156 9.14370706 19.8276319 5.47258526 25.0323697 4.71629258 27.3599993 0 29.6876288 4.71629258 34.8923667 5.47258526 31.126183 9.14370706 32.0152584 14.3274142"></polygon>
                                    <polygon id="Star-Copy-3" points="66.2399982 11.8799997 61.5847392 14.3274142 62.4738145 9.14370706 58.7076308 5.47258526 63.9123687 4.71629258 66.2399982 0 68.5676278 4.71629258 73.7723657 5.47258526 70.0061819 9.14370706 70.8952573 14.3274142"></polygon>
                                    <polygon id="Star-Copy-4" points="85.6799977 11.8799997 81.0247387 14.3274142 81.913814 9.14370706 78.1476303 5.47258526 83.3523682 4.71629258 85.6799977 0 88.0076273 4.71629258 93.2123651 5.47258526 89.4461814 9.14370706 90.3352568 14.3274142"></polygon>
                                </g>
                            </g>
                        </g>
                    </g>
                </g>
            </g>
        </g>
    </g>
</svg>