<?xml version="1.0" encoding="UTF-8"?>
<svg width="40px" height="46px" viewBox="0 0 40 46" version="1.1" xmlns="http://www.w3.org/2000/svg" xmlns:xlink="http://www.w3.org/1999/xlink">
    <title>Group 2</title>
    <g id="UI-Homepage" stroke="none" stroke-width="1" fill="none" fill-rule="evenodd">
        <g id="UI---Home-V2" transform="translate(-1236.000000, -926.000000)" stroke="#000000" stroke-width="1.65">
            <g id="Group-46" transform="translate(101.500000, 926.000000)">
                <g id="Group-47" transform="translate(1048.000000, 1.000000)">
                    <g id="Group-2" transform="translate(88.500000, 0.000000)">
                        <g id="Group-13" transform="translate(2.518617, 6.100001)" stroke-linejoin="round">
                            <path d="M4.3095995,21.9611987 C4.3095995,20.5108217 4.3095995,19.423039 4.3095995,18.6978505 C6.52532823,12.6089833 10.0604845,4.577245 11.602965,-0.000399999976 C15.6538612,-0.000399999976 21.7302055,-0.000399999976 29.831998,-0.000399999976 C30.159998,-0.000399999976 30.4263979,0.265199984 30.4263979,0.593999965 L30.4263979,19.5867988" id="Stroke-1" stroke-linecap="square"></path>
                            <polyline id="Stroke-3" points="13.212719 -7.99999953e-05 13.212719 5.93511965 14.9935189 5.34231968 17.3679187 5.93511965 19.7423186 5.34231968 21.5223185 5.93511965 21.5223185 -7.99999953e-05"></polyline>
                            <line x1="21.5224785" y1="17.212799" x2="26.2712782" y2="17.212799" id="Stroke-5" stroke-linecap="square"></line>
                            <path d="M20.9071985,24.9303985 L28.799198,20.3927988 C30.070398,19.6583988 31.7103979,20.0975988 32.4447978,21.3695987 C33.1783978,22.6423987 32.7383978,24.2831986 31.4671979,25.0175985 L19.9471986,31.5847981 C19.4103986,31.8911981 18.8031986,32.0511981 18.1855987,32.0511981 L9.4391992,32.0511981 C8.79439924,32.0511981 8.16159928,32.2271981 7.60879931,32.5591981 L5.48879943,33.831998" id="Stroke-7" stroke-linecap="round"></path>
                            <path d="M11.4322391,26.1159184 L18.2586387,26.1159184 C19.7274386,26.1159184 20.9290385,24.9143185 20.9290385,23.4455186 C20.9290385,21.9751187 19.7282386,20.7743188 18.2602387,20.7743188 L8.62423925,20.7743188 C7.94423929,20.7743188 7.27863933,20.9687188 6.70583936,21.3351187 C4.47771219,22.7592264 2.8066168,23.8273071 1.69255322,24.539361" id="Stroke-9" stroke-linecap="round"></path>
                            <polyline id="Stroke-11" stroke-linecap="round" points="0.840472925 26.7133325 6.0814394 35.0181579 3.11663958 36.7981578"></polyline>
                        </g>
                        <line x1="16.5" y1="0.5" x2="0.5" y2="39.5" id="Line-7" stroke-linecap="round"></line>
                    </g>
                </g>
            </g>
        </g>
    </g>
</svg>