<svg xmlns="http://www.w3.org/2000/svg" width="50" height="50" viewBox="0 0 25 25"><defs><clipPath id="v3uoa"><path d="M.97 1.19h23.992v23.994H.97z"/></clipPath></defs><g><g transform="rotate(-7 13 13)"><g/><g clip-path="url(#v3uoa)"><path d="M12.966 25.184c-1.115 0-8.972-7.007-11.14-12.75-2.12-5.616.065-9.167 2.58-10.501C6.87.629 10.49.912 12.967 3.827 15.443.914 19.064.63 21.524 1.933c2.517 1.334 4.702 4.885 2.581 10.502-2.167 5.742-10.024 12.75-11.14 12.75M7.46 2.39a5.32 5.32 0 0 0-2.49.603c-2.185 1.16-3.863 4.137-2.02 9.021 2.028 5.378 8.744 11.18 10.017 11.93 1.273-.75 7.988-6.552 10.017-11.93 1.843-4.884.164-7.862-2.02-9.02-2.166-1.15-5.44-.777-7.507 2.158-.225.318-.756.318-.98 0C11.107 3.21 9.211 2.39 7.457 2.39"/></g></g></g></svg>