<svg xmlns="http://www.w3.org/2000/svg" width="68" height="70" viewBox="0 0 34 35"><g><g transform="scale(-1 1) rotate(28 0 -51.183)"><g><path fill="none" stroke="#000" stroke-linecap="round" stroke-linejoin="round" stroke-miterlimit="20" stroke-width=".96" d="M14.569 28.18c-2.08 2.345-4.999 3.45-7.666 2.59-3.902-1.254-5.791-6.231-4.22-11.118 1.572-4.885 6.01-7.827 9.912-6.573 1.64.527 2.924 1.712 3.746 3.27"/></g><g><path fill="none" stroke="#000" stroke-linecap="round" stroke-linejoin="round" stroke-miterlimit="20" stroke-width=".96" d="M6.04 20.726c.826-2.567 3.157-4.114 5.206-3.454"/></g><g><path fill="none" stroke="#000" stroke-linecap="round" stroke-linejoin="round" stroke-miterlimit="20" stroke-width=".96" d="M28.834 23.85c-.273 5.244-3.889 9.32-8.077 9.101-4.19-.218-7.364-4.647-7.09-9.891.272-5.244 3.89-9.32 8.078-9.102 4.188.219 7.362 4.647 7.09 9.892z"/></g><g><path fill="none" stroke="#000" stroke-linecap="round" stroke-linejoin="round" stroke-miterlimit="20" stroke-width=".96" d="M17.27 23.246c.143-2.756 2.044-4.896 4.244-4.782"/></g><g><path fill="none" stroke="#000" stroke-linecap="round" stroke-linejoin="round" stroke-miterlimit="20" stroke-width=".96" d="M16.952 5.914c.021-.014-.783-3.375-3.002-5.944"/></g><g><path fill="none" stroke="#000" stroke-linecap="round" stroke-linejoin="round" stroke-miterlimit="20" stroke-width=".96" d="M17.27 5.908s.802 8.393 13.516 4.172"/></g><g><path fill="none" stroke="#000" stroke-linecap="round" stroke-linejoin="round" stroke-miterlimit="20" stroke-width=".96" d="M12.59 13.074v0l4.363-7.164v0l3.63 8.094v0"/></g></g></g></svg>