<?xml version="1.0" encoding="UTF-8"?>
<svg width="64px" height="55px" viewBox="0 0 64 55" version="1.1" xmlns="http://www.w3.org/2000/svg" xmlns:xlink="http://www.w3.org/1999/xlink">
    <title>Group</title>
    <g id="UI-Homepage" stroke="none" stroke-width="1" fill="none" fill-rule="evenodd">
        <g id="UI---Home-V2" transform="translate(-517.000000, -925.000000)" stroke="#000000" stroke-width="1.65">
            <g id="Group-46" transform="translate(101.500000, 926.000000)">
                <g id="Group" transform="translate(417.031738, 0.800001)">
                    <g id="Group-9" transform="translate(1.996204, 5.850000)">
                        <path d="M53.0399965,39.5199976 L1.07352239,39.5199976 L17.5482294,0 L53.0399965,0 C55.3373564,0 57.2,1.86263989 57.2,4.15999975 L57.2,35.3599979 C57.2,37.6573578 55.3373564,39.5199976 53.0399965,39.5199976 Z" id="Stroke-3"></path>
                        <path d="M15.6071161,4.15999975 L46.7999969,4.15999975 C46.7999969,7.60239955 49.5975967,10.3999994 53.0399965,10.3999994 L53.0399965,29.1199983 C49.5975967,29.1199983 46.7999969,31.9175981 46.7999969,35.3599998 L5.19999938,35.3599998 C5.19999938,34.570664 4.89824293,33.4921384 4.29473002,32.1244228 L15.6071161,4.15999975 Z" id="Stroke-5" stroke-linejoin="round"></path>
                        <path d="M34.3199976,19.7599988 C34.3199976,25.5039185 30.5947179,30.1599982 25.9999981,30.1599982 C21.4052784,30.1599982 17.6799986,25.5039185 17.6799986,19.7599988 C17.6799986,14.0160792 21.4052784,9.35999944 25.9999981,9.35999944 C30.5947179,9.35999944 34.3199976,14.0160792 34.3199976,19.7599988 Z" id="Stroke-7" stroke-linejoin="round"></path>
                    </g>
                    <line x1="21.45" y1="0.65" x2="0.65" y2="51.35" id="Line-7" stroke-linecap="round"></line>
                </g>
            </g>
        </g>
    </g>
</svg>