<?xml version="1.0" encoding="UTF-8"?>
<svg width="48px" height="46px" viewBox="0 0 48 46" version="1.1" xmlns="http://www.w3.org/2000/svg" xmlns:xlink="http://www.w3.org/1999/xlink">
    <title>Group 45</title>
    <g id="UI-Homepage" stroke="none" stroke-width="1" fill="none" fill-rule="evenodd" stroke-linecap="round">
        <g id="UI---Home-V2" transform="translate(-906.000000, -926.000000)" stroke="#000000">
            <g id="Group-46" transform="translate(101.500000, 926.000000)">
                <g id="Group-45" transform="translate(806.500000, 0.000000)">
                    <g id="Group-15" transform="translate(23.265895, 22.738944) rotate(28.000000) translate(-23.265895, -22.738944) translate(9.765895, 5.238944)" stroke-linejoin="round" stroke-width="1.652">
                        <path d="M9.5842,29.7577 C7.4502,32.1627 4.06635717,33.1486639 1.33135717,32.2676639 C0.7814905,27.0367254 -0.0467629208,19.4311502 0.0327526543,16.565863 C2.13869503,14.4107602 4.9647885,13.4351567 7.5592,14.2697 C9.2412,14.8097 10.5582,16.0257 11.4012,17.6237" id="Stroke-1"></path>
                        <path d="M0.8337,22.1181 C1.6807,19.4851 4.0717,17.8991 6.1737,18.5761" id="Stroke-3"></path>
                        <path d="M24.216,25.3173 C23.936,30.6963 20.227,34.8763 15.931,34.6523 C11.634,34.4283 8.379,29.8863 8.659,24.5073 C8.939,19.1293 12.649,14.9493 16.945,15.1723 C21.24,15.3963 24.496,19.9383 24.216,25.3173 Z" id="Stroke-5"></path>
                        <path d="M12.3513,24.7001 C12.4983,21.8741 14.4473,19.6791 16.7043,19.7961" id="Stroke-7"></path>
                        <path d="M12.0344,6.9218 C12.0564,6.9078 11.2314,3.4608 8.9554,0.8258" id="Stroke-9"></path>
                        <path d="M12.3513,6.9218 C12.3513,6.9218 13.1743,15.5298 26.2143,11.2008 C26.2143,11.2008 19.8013,1.6218 12.3513,6.9218 Z" id="Stroke-11"></path>
                        <polyline id="Stroke-13" points="7.5598 14.2694 12.0348 6.9214 15.7568 15.2234"></polyline>
                    </g>
                    <line x1="16.5" y1="2.5" x2="0.5" y2="41.5" id="Line-7" stroke-width="1.65"></line>
                </g>
            </g>
        </g>
    </g>
</svg>