<svg xmlns="http://www.w3.org/2000/svg" width="116" height="96" viewBox="0 0 58 48"><g><g transform="rotate(96.645 28.5 24)"><g><path d="M13.626 7.761c6.283 3.117 11.466 7.178 16.514 12.013 2.385 2.284 4.825 4.587 6.761 7.272 3.71 5.144 8.935 17.069 10.777 23.124a.497.497 0 0 0 .95-.289c-1.865-6.133-7.164-18.206-10.921-23.416-1.972-2.734-4.452-5.083-6.88-7.408-5.122-4.906-10.385-9.023-16.76-12.185a.497.497 0 0 0-.441.89z"/></g><g><path d="M47.603 35.09c.44-.796.966-1.543 1.545-2.242.163-.196.33-.388.502-.574.253-.274.702-.75 1.185-1.111.22-.165.447-.306.662-.376.11-.035.213-.063.298-.009.098.06.156.188.212.372.048.161.076.33.08.5.009.272-.038.548-.114.81-.51 1.76-1.875 3.4-3.121 4.693-1 1.035-2.08 1.986-3.154 2.944a19.425 19.425 0 0 1 1.905-5.008zm1.963 2.751c1.353-1.401 2.808-3.195 3.361-5.104.105-.36.165-.742.153-1.117a2.934 2.934 0 0 0-.123-.757c-.165-.545-.44-.838-.74-.984-.315-.155-.684-.156-1.073-.02-.821.287-1.785 1.268-2.223 1.74-.184.2-.363.406-.537.615a15.58 15.58 0 0 0-1.65 2.394c-1.183 2.14-1.93 4.45-2.318 6.863a.497.497 0 0 0 .955.255c1.406-1.286 2.871-2.512 4.195-3.885z"/></g><g><path d="M44.612 30.951c.743-1.755 1.791-3.679 3.378-4.797.571-.402 1.323-.749 1.703.008.06.119.089.251.1.383.097 1.095-.627 2.187-1.212 3.06-1.35 2.01-3.226 3.782-5.23 5.188.343-1.305.736-2.6 1.261-3.842zm-1.409 5.141c2.367-1.542 4.626-3.585 6.203-5.934.702-1.047 1.493-2.386 1.377-3.7a2.062 2.062 0 0 0-.203-.742c-.226-.45-.527-.716-.855-.86-.696-.305-1.586-.022-2.307.487-1.734 1.221-2.908 3.302-3.72 5.221-.701 1.657-1.175 3.404-1.604 5.147a.497.497 0 0 0 .841.461.49.49 0 0 0 .268-.08z"/></g><g><path d="M41.647 25.558c.429-1.292.93-2.568 1.633-3.738.134-.225.275-.447.438-.652.246-.309.866-.886 1.463-1.164.119-.056.237-.1.35-.12.088-.016.172-.026.24.019.103.07.147.217.183.433.269 1.626-.538 3.395-1.283 4.783a17.39 17.39 0 0 1-4.015 4.952c.213-1.527.506-3.05.991-4.513zm-1.532 5.59c.17.215.483.25.697.08a18.421 18.421 0 0 0 4.734-5.64c.841-1.567 1.69-3.579 1.388-5.413-.096-.578-.335-.912-.61-1.097-.3-.2-.67-.246-1.075-.15-.866.208-1.934 1.152-2.308 1.621-.19.239-.356.498-.513.76-.74 1.233-1.272 2.576-1.723 3.937-.558 1.682-.875 3.44-1.1 5.195a.497.497 0 0 0 .428.556.493.493 0 0 0 .082.15z"/></g><g><path d="M37.598 18.786c.31-1.048.683-2.085 1.22-3.04.474-.842 1.046-1.643 1.926-2.09.46-.234.893-.32 1.237-.18.32.132.52.466.6.972.054.338.053.688.023 1.027-.16 1.857-1.292 3.453-2.457 4.842-1.027 1.222-2.159 2.357-3.317 3.458.072-1.688.287-3.361.768-4.99zm-.856 6.447c1.451-1.357 2.888-2.749 4.165-4.272 1.294-1.542 2.508-3.336 2.687-5.398.036-.42.034-.852-.032-1.27-.148-.937-.612-1.493-1.205-1.735-.57-.233-1.299-.176-2.064.213-1.057.538-1.771 1.477-2.34 2.49-.574 1.021-.976 2.129-1.307 3.249-.608 2.058-.814 4.185-.836 6.324a.497.497 0 0 0 .393.49c.177.078.39.048.539-.091z"/></g><g><path d="M32.376 15.428c.015-1.297.11-2.596.428-3.858.126-.502.295-.993.518-1.462.293-.615.645-.983 1.049-.995.398-.01.754.335 1.059.933.491.966.352 2.188.077 3.203-.599 2.204-1.766 4.19-2.97 6.122a39.887 39.887 0 0 1-.161-3.943zm.307 5.583c1.478-2.37 3.035-4.778 3.773-7.502.336-1.24.45-2.732-.15-3.913-.53-1.044-1.275-1.495-1.969-1.475-.689.019-1.415.508-1.915 1.562-.25.527-.441 1.08-.583 1.646-.336 1.337-.44 2.713-.457 4.087-.021 1.848.104 3.682.313 5.516a.497.497 0 0 0 .957.123.478.478 0 0 0 .03-.044z"/></g><g><path d="M27.312 11.68c-.207-1.036-.483-2.366-.466-3.623.01-.776.13-1.524.474-2.138.128-.228.365-.284.6-.26.312.032.633.194.837.417.68.743.75 1.957.785 2.914.082 2.266-.561 4.314-1.328 6.372a47.447 47.447 0 0 1-.902-3.683zm.704 5.593a.497.497 0 0 0 .642-.286c1.005-2.622 1.983-5.165 1.878-8.033-.042-1.173-.211-2.638-1.046-3.549a2.413 2.413 0 0 0-1.47-.734c-.626-.064-1.226.154-1.567.761-.422.752-.59 1.662-.602 2.612-.018 1.329.267 2.736.486 3.83a50.683 50.683 0 0 0 1.2 4.705c.03.098.087.18.16.24a.497.497 0 0 0 .32.454z"/></g><g><path d="M21.641 5.017c-.119-.94-.278-2.079.147-2.965.137-.287.41-.32.657-.238.227.076.442.232.587.427.76 1.02.88 2.457.766 3.684-.13 1.426-.546 2.827-.817 4.242-.614-1.675-1.118-3.405-1.34-5.15zm1.098 7.623a.497.497 0 0 0 .593.473.497.497 0 0 0 .547-.68l-.145-.346c.076-2.052.866-4.034 1.053-6.07.135-1.46-.056-3.156-.958-4.369-.717-.963-2.314-1.327-2.937-.025-.504 1.053-.378 2.403-.236 3.52.31 2.438 1.146 4.852 2.081 7.13-.002.122-.002.244.002.367z"/></g><g><path d="M15.54 1.591c-.1-.609-.202-1.385-.115-2.1.05-.415.163-.81.405-1.117.52-.665 1.395-.236 1.795.397.356.561.465 1.242.535 1.893.113 1.042.121 2.119.097 3.166a101.953 101.953 0 0 1-.165 3.765c-.012.196-.03.393-.05.59-1.29-1.98-2.12-4.266-2.502-6.594zm3.42 7.763c-.002-.566.09-1.137.123-1.701.076-1.265.139-2.535.167-3.801.025-1.09.015-2.21-.102-3.294-.087-.8-.247-1.628-.684-2.318-.75-1.186-2.44-1.725-3.416-.478-.35.446-.536 1.009-.61 1.61-.098.81.01 1.69.122 2.38.467 2.854 1.578 5.648 3.34 7.95a.497.497 0 0 0 .602.149.497.497 0 0 0 .458-.497z"/></g><g><path d="M10.618 2.981c-.455-.7-.927-1.42-1.217-2.207C9.248.358 9.07-.242 9.08-.79c.009-.398.118-.777.539-.921.35-.12.67.073.953.319.377.33.685.788.883 1.13 1.185 2.042 1.552 4.284 1.963 6.555a17.44 17.44 0 0 1-2.8-3.313zm3.91 3.851c-.497-2.628-.845-5.233-2.213-7.592-.296-.51-.8-1.217-1.401-1.62-.491-.328-1.044-.466-1.616-.27-.712.244-1.054.771-1.168 1.407-.139.774.109 1.736.339 2.36.315.857.821 1.643 1.316 2.405a18.407 18.407 0 0 0 3.747 4.185.497.497 0 0 0 .811-.39.496.496 0 0 0 .185-.485z"/></g><g><path d="M7.509 8.392c-1.025-.048-2.131-.206-2.934-.9-.373-.323-.723-.763-.281-1.123.11-.09.236-.161.365-.22.562-.253 1.216-.228 1.817-.174.886.08 1.774.24 2.628.49 1.14.335 2.254.772 3.39 1.13-1.591.568-3.3.874-4.985.797zm6.262-1.466c-1.486-.378-2.91-.983-4.382-1.414a14.81 14.81 0 0 0-2.82-.526c-.768-.07-1.6-.065-2.318.258-.207.094-.406.21-.583.355-.324.263-.489.556-.551.849-.132.617.233 1.297.81 1.795.972.842 2.298 1.084 3.54 1.14 2.235.103 4.51-.415 6.536-1.321a.497.497 0 0 0 .105-.844.496.496 0 0 0-.337-.292z"/></g><g><path d="M14.962 11.498c-1.383.644-3.05.952-4.553 1.12-.607.067-1.405.127-2.138.022-.431-.062-.84-.179-1.152-.408-.2-.148-.151-.397-.068-.623.12-.33.36-.645.585-.779.686-.407 1.501-.532 2.331-.567.907-.037 1.834.036 2.663.033 1.415-.004 2.831.065 4.247.044-.612.439-1.252.85-1.915 1.158zm2.87-2.183c-1.735.09-3.47-.017-5.206-.012-.84.003-1.78-.07-2.7-.032-.997.042-1.97.215-2.795.702-.458.27-.981.962-1.108 1.632-.103.545.028 1.068.51 1.42 1.024.75 2.81.7 3.985.57 1.605-.178 3.384-.516 4.861-1.201 1.134-.526 2.211-1.328 3.196-2.088a.497.497 0 0 0-.404-.88.494.494 0 0 0-.34-.111z"/></g><g><path d="M15.674 17.114c-1.1.207-2.487.267-3.37-.536-.243-.222-.356-.446-.339-.673.03-.397.373-.745.793-1.004 1.586-.975 3.66-1.05 5.466-1.15a38.96 38.96 0 0 1 3.768-.023c-1.69 1.667-4.08 2.965-6.318 3.386zm7.923-3.79a.497.497 0 0 0-.461-.529 40.438 40.438 0 0 0-4.967-.035c-1.962.108-4.206.234-5.93 1.291-.717.44-1.215 1.1-1.265 1.775-.035.487.14 1.004.663 1.479 1.11 1.008 2.838 1.035 4.22.775 2.734-.512 5.68-2.23 7.505-4.367a.495.495 0 0 0 .235-.388z"/></g><g><path d="M19.438 20.738c-.489.048-1.361.026-2.032-.232-.331-.128-.625-.3-.696-.616-.054-.24.142-.437.357-.63.494-.444 1.242-.775 1.604-.914 2.424-.93 5.289-1.157 7.906-.89-2.036 1.63-4.593 3.034-7.14 3.282zm8.317-4.131c-3.04-.472-6.538-.302-9.44.812-.433.166-1.322.571-1.913 1.103-.51.459-.79 1.017-.66 1.587.141.63.644 1.069 1.307 1.324.821.316 1.887.352 2.485.294 3.09-.301 6.21-2.168 8.498-4.198a.497.497 0 0 0 .12-.583.496.496 0 0 0-.397-.34z"/></g><g><path d="M22.91 25.004c-.558.094-1.54.184-2.31-.038-.387-.111-.726-.296-.827-.674-.083-.309.122-.552.377-.77.57-.486 1.463-.808 1.938-.973 2.724-.942 5.67-1.047 8.54-.81-2.449 1.37-4.947 2.796-7.718 3.265zm9.532-3.07a.497.497 0 0 0 .126-.985c-3.572-.458-7.36-.532-10.807.662-.556.192-1.591.587-2.257 1.156-.567.486-.875 1.094-.69 1.782.194.724.771 1.159 1.51 1.371.916.264 2.085.176 2.749.063 3.348-.568 6.32-2.464 9.267-4.062z"/></g><g><path d="M26.32 29.69c-.462.045-1.19-.06-1.814-.298a2.685 2.685 0 0 1-.706-.38c-.142-.113-.257-.238-.3-.389-.057-.201.034-.423.25-.69.143-.177.315-.332.497-.466 1.668-1.228 4.196-1.349 6.17-1.464 1.33-.078 2.661-.067 3.992-.066-2.49 1.664-5.064 3.464-8.088 3.754zm10.018-3.767a.497.497 0 0 0-.022-.993c-1.985.043-3.972-.034-5.956.082-2.15.125-4.886.318-6.702 1.655a3.68 3.68 0 0 0-.68.64c-.397.49-.518.94-.482 1.33.037.41.25.774.593 1.075.813.714 2.448 1.051 3.326.967 3.673-.352 6.733-2.782 9.736-4.696a.482.482 0 0 0 .074-.058z"/></g><g><path d="M29.948 33.856c-.587.013-1.587-.046-2.303-.4-.357-.175-.645-.425-.662-.834-.002-.051.044-.09.08-.135.086-.105.199-.194.29-.26.65-.466 1.522-.65 2.29-.801 1.924-.378 3.86-.29 5.804-.176 1.058.063 2.112.119 3.154.266-2.726 1.215-5.695 2.278-8.653 2.34zm10.332-2.005a.497.497 0 0 0 .257-.96c-1.65-.44-3.336-.532-5.031-.632-2.028-.12-4.048-.202-6.054.192-.902.178-1.916.422-2.678.969a2.389 2.389 0 0 0-.572.562 1.14 1.14 0 0 0-.211.68c.032.798.52 1.343 1.215 1.686.86.424 2.058.516 2.763.501 3.529-.074 7.078-1.495 10.238-2.976a.469.469 0 0 0 .052-.028z"/></g><g><path d="M32.454 38.921c-.531.012-1.276-.06-1.899-.312-.505-.204-.943-.523-.979-1.084-.038-.598.303-.949.748-1.177.571-.293 1.298-.407 1.866-.49 1.382-.203 2.803-.146 4.194-.11 1.552.04 3.053.112 4.541.417-2.562 1.34-5.625 2.693-8.47 2.756zm10.087-2.323a.497.497 0 0 0 .318-.941c-2.12-.715-4.235-.844-6.45-.902-1.447-.038-2.925-.091-4.363.12-.663.098-1.508.247-2.174.59-.792.405-1.354 1.059-1.286 2.123.05.789.501 1.348 1.141 1.72.82.477 1.971.624 2.75.606 3.218-.072 6.714-1.688 9.517-3.192a.494.494 0 0 0 .216-.23c.11.033.22.069.331.106z"/></g><g><path d="M36.876 44c-1.287.088-2.934.14-4.09-.545-.388-.23-.58-.51-.583-.812-.003-.509.446-.994 1.052-1.268 1.658-.75 3.701-.488 5.459-.39 1.856.106 3.7.32 5.552.477-2.321 1.16-4.766 2.36-7.39 2.538zm8.37-2.956a.497.497 0 0 0-.456-.534c-2.01-.16-4.01-.402-6.026-.516-1.907-.107-4.12-.338-5.92.476-1.001.453-1.64 1.338-1.634 2.18.004.597.304 1.206 1.069 1.66 1.32.781 3.192.78 4.66.68 2.893-.196 5.586-1.553 8.13-2.824a.497.497 0 0 0 .067-.848.494.494 0 0 0 .11-.274z"/></g></g></g></svg>