<svg xmlns="http://www.w3.org/2000/svg" width="52" height="96" viewBox="0 0 26 48"><g><g><g><path fill="#202020" d="M13.683 8.146c-.084 1.37-.325 3.474-.3 4.062.124 3.004 1.059 6.315 2.003 9.155.843 2.536 2.063 4.742 3.13 6.92 1.025 2.09 1.908 4.151 2.123 6.48.323 3.521-.843 6.315-2.484 8.74l-.043.073c-.253.523-.248 1.103-.238 1.645.003.163.005.322-.011.47-.014.123-.034.239-.122.326-.074.073-.185.123-.333.165-.697.195-5.452.626-9.015.384-1.438-.098-2.677-.286-3.314-.69-.11-.07-.185-.131-.223-.204-.041-.08-.017-.164.002-.25.03-.133.077-.269.12-.408.16-.51.254-1.047-.04-1.609-.109-.205-.347-.486-.66-.862-1.054-1.27-2.979-3.907-1.954-9.593.907-5.036 3.825-8.594 5.094-11.108 1.484-2.94 1.542-5.924 1.83-9.236.06-.705-.17-1.473-.6-2.299-.446-.856-1.11-1.79-1.798-2.808 1.607-.113 4.765-.301 6.367-.168.167.014.352.046.483.071.001.188 0 .477-.017.744zm8.118 26.51c-.227-2.473-1.15-4.667-2.237-6.887-1.045-2.132-2.244-4.29-3.07-6.775-.912-2.74-1.825-5.935-1.945-8.834-.024-.57.218-2.612.3-3.942.043-.706.012-1.25-.056-1.418a.806.806 0 0 0-.429-.421c-.202-.093-.568-.171-1.05-.211-2.261-.189-7.547.241-7.547.241a.584.584 0 0 0-.443.898c.845 1.311 1.739 2.485 2.289 3.54.312.599.516 1.146.472 1.658-.275 3.157-.295 6.008-1.71 8.812-1.303 2.582-4.268 6.252-5.2 11.426-1.127 6.258 1.045 9.148 2.206 10.546.241.291.439.499.522.658.113.215.049.422-.008.62-.072.245-.159.484-.198.714-.05.287-.036.566.08.837.107.251.305.507.676.743.745.473 2.18.755 3.861.87 3.72.253 8.681-.221 9.41-.425.43-.121.712-.312.907-.533.29-.33.395-.744.41-1.212.014-.454-.1-.981.107-1.445 1.769-2.624 3.003-5.654 2.653-9.46z"/></g><g><path fill="#202020" d="M8.086 1.51c.02.163.045.35.074.534.226 1.424.676 3.717.877 4.606a.584.584 0 0 1-1.139.257c-.233-1.035-.798-3.934-.975-5.25-.057-.424-.062-.722-.042-.821a.543.543 0 0 1 .431-.452c.02-.005.127-.021.305-.028C8.69.316 14.028.24 14.028.24a.584.584 0 0 1 .586.672s-.645 4.215-.879 5.707a.584.584 0 0 1-1.153-.18c.175-1.119.581-3.767.773-5.022-1.289.02-4.042.062-5.27.093z"/></g><g><path fill="#202020" d="M7.045 22.447c.944-.622 1.66-1.272 2.829-1.29.949-.013 1.86.259 2.774.46 1.05.232 2.106.377 3.211.075a.584.584 0 0 0-.308-1.126c-.913.25-1.783.103-2.651-.089-1.003-.22-2.004-.502-3.044-.486-1.413.02-2.312.729-3.453 1.48a.584.584 0 0 0 .642.976z"/></g><g><path fill="#202020" d="M14.604 13.788c3.407-3.222 8.136-.395 9.512 3.451 1.61 4.503-.579 9.246-4.568 11.63a.584.584 0 0 0 .599 1.002c4.462-2.666 6.87-7.988 5.068-13.025-1.641-4.586-7.35-7.747-11.413-3.907a.585.585 0 0 0 .802.849z"/></g></g></g></svg>