<?xml version="1.0" encoding="UTF-8"?>
<svg width="67px" height="54px" viewBox="0 0 67 54" version="1.1" xmlns="http://www.w3.org/2000/svg" xmlns:xlink="http://www.w3.org/1999/xlink">
    <title>Group 19</title>
    <g id="UI-Homepage" stroke="none" stroke-width="1" fill="none" fill-rule="evenodd" stroke-linecap="round">
        <g id="UI---Home-V2" transform="translate(-164.000000, -929.000000)" stroke="#000000" stroke-width="1.65">
            <g id="Group-46" transform="translate(101.500000, 926.000000)">
                <g id="Group-19" transform="translate(63.783639, 3.800001)">
                    <path d="M59.7163607,45.6999991 C59.7163607,48.7385298 57.2539323,51.1999991 54.2169785,51.1999991 C51.1787891,51.1999991 48.7163607,48.7385298 48.7163607,45.6999991 C48.7163607,42.6614684 51.1787891,40.1999991 54.2169785,40.1999991 C57.2539323,40.1999991 59.7163607,42.6614684 59.7163607,45.6999991 Z" id="Stroke-1" stroke-linejoin="round"></path>
                    <path d="M22.7163607,45.6999991 C22.7163607,48.7385298 20.2539323,51.1999991 17.2169785,51.1999991 C14.1787891,51.1999991 11.7163607,48.7385298 11.7163607,45.6999991 C11.7163607,42.6614684 14.1787891,40.1999991 17.2169785,40.1999991 C20.2539323,40.1999991 22.7163607,42.6614684 22.7163607,45.6999991 Z" id="Stroke-3" stroke-linejoin="round"></path>
                    <line x1="21.0987137" y1="0.824999094" x2="1.3340078" y2="49.5749991" id="Line-7"></line>
                    <path d="M48.7163607,25.1999991 L48.7163607,27.1999991 C48.7163607,28.8563333 50.0586788,30.1999991 51.7163607,30.1999991 L53.7163607,30.1999991" id="Stroke-5" stroke-linejoin="round"></path>
                    <line x1="42.7163607" y1="45.6999991" x2="48.7163607" y2="45.6999991" id="Stroke-7" stroke-linejoin="round"></line>
                    <path d="M59.1506083,46.1999991 L60.9769093,46.1999991 C62.4893917,46.1999991 63.7163607,44.9429121 63.7163607,43.3933034 L63.7163607,34.2772165 C63.7163607,32.9167382 63.2339416,31.604173 62.3601723,30.5803469 L52.0238502,18.47726 C51.330988,17.66526 50.3292299,17.1999991 49.2757841,17.1999991 L42.7163607,17.1999991" id="Stroke-9" stroke-linejoin="round"></path>
                    <line x1="2.71636074" y1="45.6999991" x2="11.7163607" y2="45.6999991" id="Stroke-11" stroke-linejoin="round"></line>
                    <polyline id="Stroke-13" stroke-linejoin="round" points="19.7163607 7.19999909 42.7163607 7.19999909 42.7163607 46.1999991 28.6730733 46.1999991"></polyline>
                    <polyline id="Stroke-15" stroke-linejoin="round" points="14.336907 21.0124991 25.4832936 21.0124991 25.4832936 18.1999991 37.7163607 25.6987356 25.4832936 33.1999991 25.4832936 30.3862356 10.7163607 30.3862356"></polyline>
                </g>
            </g>
        </g>
    </g>
</svg>