<?xml version="1.0" encoding="UTF-8"?>
<svg width="20px" height="20px" viewBox="0 0 20 20" version="1.1" xmlns="http://www.w3.org/2000/svg" xmlns:xlink="http://www.w3.org/1999/xlink">
    <title>Shape</title>
    <g id="Symbols" stroke="none" stroke-width="1" fill="none" fill-rule="evenodd">
        <g id="Updated-Nav" transform="translate(-1311.000000, -14.000000)" fill="#FFFFFF" fill-rule="nonzero">
            <g id="Group-49">
                <path d="M1320.66862,14 C1315.32749,14 1311,18.3274854 1311,23.668616 C1311,29.0097466 1315.32749,33.337232 1320.66862,33.337232 C1326.00975,33.337232 1330.33723,29.0097466 1330.33723,23.668616 C1330.33723,18.3274854 1326.00975,14 1320.66862,14 Z M1320.66862,17.7426901 C1322.56335,17.7426901 1324.09942,19.2787524 1324.09942,21.1734893 C1324.09942,23.0682261 1322.56335,24.6042885 1320.66862,24.6042885 C1318.77388,24.6042885 1317.23782,23.0682261 1317.23782,21.1734893 C1317.23782,19.2787524 1318.77388,17.7426901 1320.66862,17.7426901 Z M1320.66862,31.1539961 C1318.38012,31.1539961 1316.32943,30.1169591 1314.95712,28.4951267 C1315.69006,27.1150097 1317.12476,26.1637427 1318.79727,26.1637427 C1318.89084,26.1637427 1318.98441,26.1793372 1319.07407,26.2066277 C1319.5809,26.3703704 1320.11111,26.4756335 1320.66862,26.4756335 C1321.22612,26.4756335 1321.76023,26.3703704 1322.26316,26.2066277 C1322.35283,26.1793372 1322.44639,26.1637427 1322.53996,26.1637427 C1324.21248,26.1637427 1325.64717,27.1150097 1326.38012,28.4951267 C1325.0078,30.1169591 1322.95712,31.1539961 1320.66862,31.1539961 Z" id="Shape"></path>
            </g>
        </g>
    </g>
</svg>