<svg xmlns="http://www.w3.org/2000/svg" width="180" height="78" viewBox="0 0 90 39"><g><g><g><path fill="none" stroke="#000" stroke-miterlimit="20" stroke-width=".8" d="M44.751 37.962c10.229 0 18.52-8.292 18.52-18.521C63.272 9.212 54.98.92 44.752.92S26.23 9.212 26.23 19.441c0 10.229 8.292 18.52 18.521 18.52z"/></g><g><path fill="none" stroke="#000" stroke-miterlimit="20" stroke-width=".8" d="M44.753 31.297c6.547 0 11.854-5.307 11.854-11.854 0-6.546-5.307-11.853-11.854-11.853-6.546 0-11.853 5.307-11.853 11.853 0 6.547 5.307 11.854 11.853 11.854z"/></g><g><path fill="none" stroke="#000" stroke-linecap="square" stroke-miterlimit="20" stroke-width=".8" d="M81.55 4.24v30.4"/></g><g><path fill="none" stroke="#000" stroke-linecap="square" stroke-miterlimit="20" stroke-width=".8" d="M7.95 4.24v30.4"/></g><g><path fill="none" stroke="#000" stroke-linecap="square" stroke-miterlimit="20" stroke-width=".8" d="M.75 4.24v30.4"/></g><g><path fill="none" stroke="#000" stroke-linecap="square" stroke-miterlimit="20" stroke-width=".8" d="M88.75 4.24v30.4"/></g></g></g></svg>